<mxfile host="app.diagrams.net" agent="Mozilla/5.0 (Windows NT 10.0; Win64; x64) AppleWebKit/537.36 (KHTML, like Gecko) Chrome/139.0.0.0 Safari/537.36" version="28.1.0">
  <diagram name="Página-1" id="58KHKjolmZH9Jl-Zs60m">
    <mxGraphModel dx="1426" dy="777" grid="1" gridSize="10" guides="1" tooltips="1" connect="1" arrows="1" fold="1" page="1" pageScale="1" pageWidth="827" pageHeight="1169" math="0" shadow="0">
      <root>
        <mxCell id="0" />
        <mxCell id="1" parent="0" />
        <mxCell id="VCM5Q_tSatYfPGVP3Kkv-5" style="rounded=0;orthogonalLoop=1;jettySize=auto;html=1;entryX=0;entryY=0.5;entryDx=0;entryDy=0;" edge="1" parent="1" source="VCM5Q_tSatYfPGVP3Kkv-1" target="VCM5Q_tSatYfPGVP3Kkv-3">
          <mxGeometry relative="1" as="geometry" />
        </mxCell>
        <mxCell id="VCM5Q_tSatYfPGVP3Kkv-1" value="Técnico" style="shape=umlActor;verticalLabelPosition=bottom;verticalAlign=top;html=1;outlineConnect=0;" vertex="1" parent="1">
          <mxGeometry x="170" y="430" width="30" height="60" as="geometry" />
        </mxCell>
        <mxCell id="VCM5Q_tSatYfPGVP3Kkv-4" style="rounded=0;orthogonalLoop=1;jettySize=auto;html=1;entryX=0;entryY=0.5;entryDx=0;entryDy=0;" edge="1" parent="1" source="VCM5Q_tSatYfPGVP3Kkv-2" target="VCM5Q_tSatYfPGVP3Kkv-3">
          <mxGeometry relative="1" as="geometry" />
        </mxCell>
        <mxCell id="VCM5Q_tSatYfPGVP3Kkv-2" value="Admin" style="shape=umlActor;verticalLabelPosition=bottom;verticalAlign=top;html=1;outlineConnect=0;" vertex="1" parent="1">
          <mxGeometry x="170" y="200" width="30" height="60" as="geometry" />
        </mxCell>
        <mxCell id="VCM5Q_tSatYfPGVP3Kkv-3" value="ViewCases" style="ellipse;whiteSpace=wrap;html=1;" vertex="1" parent="1">
          <mxGeometry x="434" y="280" width="120" height="80" as="geometry" />
        </mxCell>
        <mxCell id="VCM5Q_tSatYfPGVP3Kkv-8" value="" style="endArrow=classic;html=1;rounded=0;" edge="1" parent="1">
          <mxGeometry width="50" height="50" relative="1" as="geometry">
            <mxPoint x="184.5" y="420" as="sourcePoint" />
            <mxPoint x="184.5" y="290" as="targetPoint" />
          </mxGeometry>
        </mxCell>
      </root>
    </mxGraphModel>
  </diagram>
</mxfile>
